HIERARCHY
ROOT pelvis
{
  OFFSET 0 100 0
  CHANNELS 6 Xposition Yposition Zposition Zrotation Xrotation Yrotation
  JOINT pelvis_right_femur
  {
    OFFSET -10.78128 -3.44521 -0.5502486
    CHANNELS 3 Zrotation Xrotation Yrotation
    JOINT right_femur_tibia
    {
      OFFSET -0.8047443 -44.0398 -0.1307829
      CHANNELS 3 Zrotation Xrotation Yrotation
      JOINT right_tibia_foot
      {
        OFFSET 3.006224 -47.83518 -5
        CHANNELS 3 Zrotation Xrotation Yrotation
        End Site
        {
          OFFSET 0 -5 15
        }
      }
    }
  }
  JOINT pelvis_left_femur
  {
    OFFSET 10.78128 -3.44521 -0.5502486
    CHANNELS 3 Zrotation Xrotation Yrotation
    JOINT left_femur_tibia
    {
      OFFSET 0.8047443 -44.0398 -0.1307829
      CHANNELS 3 Zrotation Xrotation Yrotation
      JOINT left_tibia_foot
      {
        OFFSET -4.370144 -48.10324 -4.275266
        CHANNELS 3 Zrotation Xrotation Yrotation
        End Site
        {
          OFFSET 0 -5 15
        }
      }
    }
  }
  JOINT pelvis_spine1
  {
    OFFSET 0 6.468898 -3.129235
    CHANNELS 3 Zrotation Xrotation Yrotation
    JOINT spine1
    {
      OFFSET 0 23.15396 4.99043
      CHANNELS 3 Zrotation Xrotation Yrotation
      JOINT spine2
      {
        OFFSET 0 20.79997 -5.064912
        CHANNELS 3 Zrotation Xrotation Yrotation
        JOINT neck
        {
          OFFSET 0 14.38658 9.616178
          CHANNELS 3 Zrotation Xrotation Yrotation
          End Site
          {
            OFFSET 0 20 0
          }
        }
      }
      JOINT right_manubrium
      {
        OFFSET -5.722621 16.35077 3.967754
        CHANNELS 3 Zrotation Xrotation Yrotation
        JOINT right_clavicle
        {
          OFFSET -13.16364 1.694482 -4.693211
          CHANNELS 3 Zrotation Xrotation Yrotation
          JOINT right_humerus
          {
            OFFSET -28.5034 -0.3100689 -2.792744
            CHANNELS 3 Zrotation Xrotation Yrotation
            JOINT right_radius
            {
              OFFSET -25.15693 0.02248979 -1.271978
              CHANNELS 3 Zrotation Xrotation Yrotation
              End Site
              {
                OFFSET -15 0 0
              }
            }
          }
        }
      }
      JOINT left_manubrium
      {
        OFFSET 5.722621 16.35077 3.967754
        CHANNELS 3 Zrotation Xrotation Yrotation
        JOINT left_clavicle
        {
          OFFSET 13.16364 1.694482 -4.693211
          CHANNELS 3 Zrotation Xrotation Yrotation
          JOINT left_humerus
          {
            OFFSET 29.39168 -1.063119 -2.237045
            CHANNELS 3 Zrotation Xrotation Yrotation
            JOINT left_radius
            {
              OFFSET 24.59957 -0.9528479 0.9047498
              CHANNELS 3 Zrotation Xrotation Yrotation
              End Site
              {
                OFFSET 15 -0 -0
              }
            }
          }
        }
      }
    }
  }
}
MOTION
Frames: 15
Frame Time: 0.0416666666667
0 103.5113 0 2.568014 -0.02840578 0.1535102 3.214759 -15.10808 11.56052 -0 37.98389 -0 -4.801541 -17.40321 -3.890343 -8.873361 9.126409 -21.52455 -0 5.077018 -0 22.82102 -9.058841 29.87593 -2.095327 -2.423062 4.378374 2.906457 9.580017 -7.902869 1.426416 20.32666 7.269795 3.820704 -26.72529 9.777379 5.95446 -18.51634 11.35685 86.03665 34.81886 -19.48676 -0 0 14.44953 -8.391996 9.062148 4.68626 7.318458 -20.9488 -0.301741 -92.81012 21.70249 20.34725 0 0 -14.78793 13.28108 15.07467 -1.681733
0.3536918 103.6085 1.628105 1.894405 0.9626273 0.2507708 4.398287 -17.67233 12.1324 -0 38.45702 -0 -4.916945 -16.42865 -3.36319 -8.654482 8.839126 -21.62113 -0 5.333269 -0 22.78565 -9.613727 30.40224 -2.04815 -2.254052 4.233036 2.965788 9.427441 -7.985389 1.46725 20.08731 7.396831 4.020665 -26.93184 9.79223 5.989486 -18.35135 11.36875 85.99417 34.98459 -19.54533 -0 0 14.18265 -8.286932 9.057839 4.598454 7.525372 -21.01457 -0.2837725 -92.30304 21.56592 19.4723 0 0 -15.79918 13.36136 14.83901 -1.934309
0.5769197 103.3326 3.583869 1.486171 0.1746 0.4053763 3.654327 -19.18166 6.607281 -0 31.82682 -0 -6.553484 -14.26938 -2.0842 -7.842392 11.13439 -21.3369 -0 5.234014 -0 13.63277 -16.17325 26.84626 -2.014662 -2.149479 4.171429 2.994918 9.396589 -8.053125 1.473416 19.96613 7.429936 4.101403 -26.94376 9.72489 5.998204 -18.24321 11.38957 86.02075 35.03639 -19.63719 -0 0 13.97 -8.339063 9.11494 4.627034 7.588417 -21.08529 -0.3178617 -91.97647 21.51746 18.97708 0 0 -16.43345 13.20903 14.6454 -1.833737
0.7735252 103.085 5.64078 0.8359366 0.7333043 0.4867041 4.256856 -21.50438 6.446729 -0 30.88243 -0 -6.507199 -13.25537 -1.953819 -7.32472 11.49184 -21.4034 -0 5.229695 -0 10.25825 -18.45456 25.80733 -1.991661 -2.045228 4.087984 3.030975 9.333815 -8.122065 1.482313 19.82887 7.487415 4.201561 -26.9954 9.683473 6.011269 -18.13213 11.40628 86.03136 35.1033 -19.71882 -0 0 13.76202 -8.364243 9.156979 4.638233 7.681326 -21.14736 -0.3377221 -91.62751 21.4479 18.42776 0 0 -17.10796 13.10714 14.45799 -1.818935
0.9532818 102.7586 7.940991 0.2051375 1.336632 0.5603727 5.036669 -24.70846 5.845039 -0 28.77981 -0 -7.053217 -11.30545 -1.510127 -6.889067 11.83792 -20.75996 -0 5.635164 -0 8.908025 -20.05115 24.90624 -1.968881 -1.939203 3.977122 3.081603 9.219086 -8.211959 1.499394 19.65338 7.557445 4.327418 -27.0658 9.641023 6.058061 -17.98597 11.40899 86.01625 35.207 -19.84892 -0 0 13.53541 -8.301319 9.19545 4.614088 7.817096 -21.21356 -0.3505229 -91.23578 21.48433 17.77366 0 0 -18.00735 12.90154 14.27935 -1.683814
1.130286 102.3522 10.50937 -0.3952654 2.129208 0.6499294 5.940339 -28.12134 5.633069 -0 26.40241 -0 -7.447416 -9.313474 -1.16507 -6.516756 12.09849 -20.01042 -0 6.136874 -0 8.170949 -21.37089 24.10312 -1.956892 -1.822985 3.827561 3.146125 9.04923 -8.324868 1.519904 19.42966 7.65683 4.490343 -27.15967 9.601134 6.129965 -17.80736 11.4047 85.97595 35.34731 -20.00887 -0 0 13.28045 -8.195874 9.23904 4.577116 8.005234 -21.28584 -0.3551668 -90.75478 21.56581 16.95963 0 0 -19.15208 12.61821 14.08129 -1.495394
1.314168 101.8547 13.42349 -0.9302534 2.983315 0.8021488 6.846442 -31.50941 5.405514 -0 23.52342 -0 -7.883696 -7.072795 -0.7331646 -6.212792 12.41727 -19.13864 -0 6.946439 -0 7.861999 -22.40523 23.22003 -1.959569 -1.705373 3.64286 3.221455 8.82375 -8.465616 1.540994 19.15755 7.780594 4.685582 -27.2509 9.551697 6.235514 -17.59662 11.39128 85.90893 35.52376 -20.21406 -0 0 13.007 -8.048702 9.300856 4.535543 8.244136 -21.36793 -0.3549286 -90.18872 21.7384 16.00081 0 0 -20.57178 12.18329 13.86905 -1.160661
1.515291 101.2924 16.76214 -1.421492 3.758205 1.06685 7.662735 -34.43016 5.114642 -0 20.62311 -0 -8.383846 -4.652717 -0.215296 -5.910656 12.86511 -18.29527 -0 8.282695 -0 7.322649 -23.11631 22.00223 -1.986114 -1.591425 3.423371 3.302744 8.548629 -8.635932 1.556876 18.83798 7.933472 4.911377 -27.32165 9.489216 6.370209 -17.36252 11.37266 85.82223 35.72893 -20.4625 -0 0 12.72288 -7.894787 9.393797 4.509001 8.53271 -21.46377 -0.3519842 -89.527 21.98573 14.89906 0 0 -22.25874 11.57974 13.63317 -0.6740044
1.746329 100.7469 20.60975 -1.918163 4.331365 1.487024 8.351131 -36.43605 4.71077 -0 18.30806 -0 -9.040445 -2.134951 0.4326023 -5.534687 13.42018 -17.54547 -0 10.50043 -0 6.103915 -23.24806 20.20954 -2.03632 -1.493824 3.185977 3.381083 8.249304 -8.833816 1.560939 18.4887 8.104941 5.149484 -27.33742 9.403911 6.525294 -17.12099 11.35314 85.73913 35.9425 -20.76497 -0 0 12.44428 -7.768755 9.533478 4.513885 8.849903 -21.58083 -0.355018 -88.80023 22.30981 13.72411 0 0 -24.1407 10.78494 13.378 0.006067456
2.023129 100.3544 25.04363 -2.47799 4.631122 2.070407 8.933128 -37.14578 4.203167 -0 17.07724 -0 -9.887615 0.2811026 1.200734 -5.011204 13.92501 -16.80101 -0 14.03457 -0 3.935808 -22.40469 17.63314 -2.097516 -1.423406 2.960539 3.446379 7.972884 -9.048839 1.546862 18.14581 8.273999 5.368784 -27.26888 9.289274 6.677625 -16.89448 11.34045 85.70211 36.12976 -21.12888 -0 0 12.18234 -7.716265 9.729663 4.562672 9.153715 -21.72721 -0.3779041 -88.0719 22.67919 12.59664 0 0 -26.04996 9.840571 13.11238 0.8670292
2.364011 100.2811 30.11417 -3.12481 4.695228 2.753881 9.508977 -36.4183 3.739331 -0 16.96098 -0 -10.76713 2.286637 1.942005 -4.329047 14.06542 -15.78884 -0 19.36752 -0 0.9953908 -20.16992 14.3121 -2.136293 -1.385254 2.792864 3.488727 7.783827 -9.2594 1.512538 17.86539 8.402308 5.525029 -27.09675 9.139755 6.795979 -16.70515 11.34171 85.7627 36.24875 -21.5571 -0 0 11.94036 -7.770302 9.981782 4.653388 9.378437 -21.9073 -0.4395462 -87.45022 23.05919 11.69782 0 0 -27.73073 8.841635 12.85927 1.872541
2.784901 100.6702 35.81244 -3.791524 4.63068 3.388627 10.15795 -34.35278 3.603478 -0 17.38649 -0 -11.27346 3.523552 2.312958 -3.577138 13.4315 -14.23426 -0 26.86843 -0 -2.110367 -16.43633 10.70159 -2.112236 -1.372281 2.72705 3.501273 7.738695 -9.43547 1.462389 17.70479 8.448646 5.579446 -26.82566 8.955846 6.852575 -16.56684 11.35962 85.95157 36.26991 -22.02797 -0 0 11.71291 -7.94229 10.27517 4.772619 9.458408 -22.11319 -0.5543595 -87.04754 23.41382 11.19953 0 0 -28.91767 7.9195 12.64676 2.950785
3.286767 101.5864 42.02287 -4.301856 4.497279 3.780278 10.76424 -31.05958 4.025835 -0 17.57119 -0 -11.00673 3.617913 1.945502 -2.901327 11.60238 -12.22594 -0 36.38139 -0 -4.764138 -11.72606 7.570567 -2.003505 -1.369889 2.784948 3.480004 7.85812 -9.54925 1.405886 17.69677 8.388861 5.518291 -26.47798 8.744669 6.839558 -16.48257 11.3896 86.25246 36.19466 -22.49059 -0 0 11.49963 -8.220125 10.58737 4.906222 9.360534 -22.32234 -0.7223645 -86.92976 23.72713 11.18849 0 0 -29.45188 7.171885 12.49706 4.031391
3.8381 102.9803 48.49651 -4.41571 4.210858 3.774602 10.94617 -26.56241 4.840045 -0 17.01865 -0 -10.04115 2.285765 0.8371658 -2.437807 8.290093 -10.29851 -0 46.82689 -0 -6.680069 -7.122109 5.633857 -1.824058 -1.365731 2.955028 3.42403 8.11835 -9.587266 1.352287 17.83443 8.229505 5.359285 -26.08098 8.518798 6.771585 -16.44815 11.4227 86.60786 36.05428 -22.88182 -0 0 11.31278 -8.582969 10.89807 5.051305 9.10152 -22.50623 -0.9270082 -87.08484 23.99949 11.62642 0 0 -29.34478 6.621752 12.41421 5.063134
4.373154 104.6837 54.89847 -3.919403 3.508371 3.342155 10.27182 -21.01156 5.390885 -0 15.63523 -0 -9.048647 -0.3318849 -0.4804356 -2.308366 3.583024 -9.030235 -0 56.3775 -0 -7.764225 -3.805228 5.229413 -1.612546 -1.355634 3.202937 3.335653 8.468812 -9.553145 1.306786 18.08114 8.000638 5.138577 -25.65644 8.291909 6.67458 -16.45684 11.45064 86.951 35.89128 -23.15434 -0 0 11.1722 -9.011566 11.19518 5.214854 8.732579 -22.64311 -1.144193 -87.44353 24.24157 12.39004 0 0 -28.73939 6.226139 12.38607 6.024435
